{
  "accessors": [
    {
      "bufferView": 2,
      "componentType": 5126,
      "count": 65532,
      "max": [
        46.606380462646484,
        67.55792999267578,
        35.4300537109375
      ],
      "min": [
        -55.573333740234375,
        -45.71918869018555,
        -45.223724365234375
      ],
      "type": "VEC3"
    },
    {
      "bufferView": 2,
      "byteOffset": 786384,
      "componentType": 5126,
      "count": 65532,
      "max": [
        0.9999999403953552,
        0.9999292492866516,
        0.9999467730522156
      ],
      "min": [
        -0.9999961256980896,
        -0.9999516606330872,
        -0.9999122619628906
      ],
      "type": "VEC3"
    },
    {
      "bufferView": 1,
      "componentType": 5126,
      "count": 65532,
      "max": [
        0.9999983310699463,
        0.9983094930648804
      ],
      "min": [
        0.002416789997369051,
        0.0
      ],
      "type": "VEC2"
    },
    {
      "bufferView": 0,
      "componentType": 5125,
      "count": 306330,
      "type": "SCALAR"
    },
    {
      "bufferView": 2,
      "byteOffset": 1572768,
      "componentType": 5126,
      "count": 65533,
      "max": [
        36.60619354248047,
        69.94996643066406,
        35.097511291503906
      ],
      "min": [
        -60.699527740478516,
        -50.16484832763672,
        -51.104129791259766
      ],
      "type": "VEC3"
    },
    {
      "bufferView": 2,
      "byteOffset": 2359164,
      "componentType": 5126,
      "count": 65533,
      "max": [
        0.9999882578849792,
        0.999993622303009,
        0.9999979734420776
      ],
      "min": [
        -0.9999996423721313,
        -0.9998111724853516,
        -0.999916672706604
      ],
      "type": "VEC3"
    },
    {
      "bufferView": 1,
      "byteOffset": 524256,
      "componentType": 5126,
      "count": 65533,
      "max": [
        1.0,
        0.9975767731666565
      ],
      "min": [
        0.0010992453899234533,
        0.0
      ],
      "type": "VEC2"
    },
    {
      "bufferView": 0,
      "byteOffset": 1225320,
      "componentType": 5125,
      "count": 289116,
      "type": "SCALAR"
    },
    {
      "bufferView": 2,
      "byteOffset": 3145560,
      "componentType": 5126,
      "count": 65532,
      "max": [
        47.92232131958008,
        61.461944580078125,
        40.133697509765625
      ],
      "min": [
        -60.23318862915039,
        -50.9883918762207,
        -37.426910400390625
      ],
      "type": "VEC3"
    },
    {
      "bufferView": 2,
      "byteOffset": 3931944,
      "componentType": 5126,
      "count": 65532,
      "max": [
        0.999998152256012,
        0.9999877214431763,
        0.9999094605445862
      ],
      "min": [
        -0.9999517798423767,
        -0.9997772574424744,
        -0.9997792840003967
      ],
      "type": "VEC3"
    },
    {
      "bufferView": 1,
      "byteOffset": 1048520,
      "componentType": 5126,
      "count": 65532,
      "max": [
        1.0,
        0.9994286894798279
      ],
      "min": [
        0.0,
        0.0
      ],
      "type": "VEC2"
    },
    {
      "bufferView": 0,
      "byteOffset": 2381784,
      "componentType": 5125,
      "count": 243357,
      "type": "SCALAR"
    },
    {
      "bufferView": 2,
      "byteOffset": 4718328,
      "componentType": 5126,
      "count": 65532,
      "max": [
        35.967437744140625,
        70.07176971435547,
        4.495998382568359
      ],
      "min": [
        -36.228111267089844,
        -13.925901412963867,
        -52.904624938964844
      ],
      "type": "VEC3"
    },
    {
      "bufferView": 2,
      "byteOffset": 5504712,
      "componentType": 5126,
      "count": 65532,
      "max": [
        0.9999917149543762,
        0.9999844431877136,
        0.9999585151672363
      ],
      "min": [
        -0.999992311000824,
        -0.999978244304657,
        -0.9993999004364014
      ],
      "type": "VEC3"
    },
    {
      "bufferView": 1,
      "byteOffset": 1572776,
      "componentType": 5126,
      "count": 65532,
      "max": [
        1.0,
        0.9998707175254822
      ],
      "min": [
        0.0005475646466948092,
        0.0
      ],
      "type": "VEC2"
    },
    {
      "bufferView": 0,
      "byteOffset": 3355212,
      "componentType": 5125,
      "count": 257253,
      "type": "SCALAR"
    },
    {
      "bufferView": 2,
      "byteOffset": 6291096,
      "componentType": 5126,
      "count": 65532,
      "max": [
        36.48735809326172,
        69.71283721923828,
        23.833316802978516
      ],
      "min": [
        -62.22167205810547,
        -37.61690139770508,
        -53.367584228515625
      ],
      "type": "VEC3"
    },
    {
      "bufferView": 2,
      "byteOffset": 7077480,
      "componentType": 5126,
      "count": 65532,
      "max": [
        0.9999517798423767,
        0.9999814629554749,
        0.9999611377716064
      ],
      "min": [
        -0.9999762177467346,
        -0.9999821782112122,
        -0.9999714493751526
      ],
      "type": "VEC3"
    },
    {
      "bufferView": 1,
      "byteOffset": 2097032,
      "componentType": 5126,
      "count": 65532,
      "max": [
        1.0,
        0.9996700286865234
      ],
      "min": [
        0.0,
        0.00027060930733568966
      ],
      "type": "VEC2"
    },
    {
      "bufferView": 0,
      "byteOffset": 4384224,
      "componentType": 5125,
      "count": 241437,
      "type": "SCALAR"
    },
    {
      "bufferView": 2,
      "byteOffset": 7863864,
      "componentType": 5126,
      "count": 65532,
      "max": [
        19.985931396484375,
        7.385232925415039,
        35.0814323425293
      ],
      "min": [
        -18.253398895263672,
        -46.606719970703125,
        -7.124689102172852
      ],
      "type": "VEC3"
    },
    {
      "bufferView": 2,
      "byteOffset": 8650248,
      "componentType": 5126,
      "count": 65532,
      "max": [
        0.9999964237213135,
        0.9999775886535645,
        0.9998434782028198
      ],
      "min": [
        -0.9999741315841675,
        -0.9999626874923706,
        -0.9999229907989502
      ],
      "type": "VEC3"
    },
    {
      "bufferView": 1,
      "byteOffset": 2621288,
      "componentType": 5126,
      "count": 65532,
      "max": [
        1.0,
        0.998296856880188
      ],
      "min": [
        0.0,
        0.0
      ],
      "type": "VEC2"
    },
    {
      "bufferView": 0,
      "byteOffset": 5349972,
      "componentType": 5125,
      "count": 248070,
      "type": "SCALAR"
    },
    {
      "bufferView": 2,
      "byteOffset": 9436632,
      "componentType": 5126,
      "count": 65532,
      "max": [
        47.01026916503906,
        16.94869041442871,
        35.1506233215332
      ],
      "min": [
        4.901018142700195,
        -45.58615493774414,
        -8.93746566772461
      ],
      "type": "VEC3"
    },
    {
      "bufferView": 2,
      "byteOffset": 10223016,
      "componentType": 5126,
      "count": 65532,
      "max": [
        0.9999974966049194,
        0.9999798536300659,
        0.9999865889549255
      ],
      "min": [
        -0.9999990463256836,
        -0.9999907612800598,
        -0.99997478723526
      ],
      "type": "VEC3"
    },
    {
      "bufferView": 1,
      "byteOffset": 3145544,
      "componentType": 5126,
      "count": 65532,
      "max": [
        1.0,
        0.999200165271759
      ],
      "min": [
        6.496231071650982e-05,
        0.0
      ],
      "type": "VEC2"
    },
    {
      "bufferView": 0,
      "byteOffset": 6342252,
      "componentType": 5125,
      "count": 260958,
      "type": "SCALAR"
    },
    {
      "bufferView": 2,
      "byteOffset": 11009400,
      "componentType": 5126,
      "count": 4376,
      "max": [
        39.59461212158203,
        -5.590564727783203,
        26.432395935058594
      ],
      "min": [
        20.323650360107422,
        -34.909393310546875,
        5.2747802734375
      ],
      "type": "VEC3"
    },
    {
      "bufferView": 2,
      "byteOffset": 11061912,
      "componentType": 5126,
      "count": 4376,
      "max": [
        0.9899427890777588,
        0.9997090697288513,
        0.9992274641990662
      ],
      "min": [
        -0.9998100996017456,
        -0.9394611120223999,
        -0.8650364875793457
      ],
      "type": "VEC3"
    },
    {
      "bufferView": 1,
      "byteOffset": 3669800,
      "componentType": 5126,
      "count": 4376,
      "max": [
        0.9967557191848755,
        0.9238758683204651
      ],
      "min": [
        0.4974241256713867,
        0.003615328809246421
      ],
      "type": "VEC2"
    },
    {
      "bufferView": 0,
      "byteOffset": 7386084,
      "componentType": 5125,
      "count": 21630,
      "type": "SCALAR"
    },
    {
      "bufferView": 2,
      "byteOffset": 11114424,
      "componentType": 5126,
      "count": 65532,
      "max": [
        47.16658020019531,
        67.88130950927734,
        35.67013931274414
      ],
      "min": [
        -45.27299118041992,
        -48.57948684692383,
        -48.424800872802734
      ],
      "type": "VEC3"
    },
    {
      "bufferView": 2,
      "byteOffset": 11900808,
      "componentType": 5126,
      "count": 65532,
      "max": [
        0.9999687075614929,
        0.9999026656150818,
        0.9999651312828064
      ],
      "min": [
        -0.9999904632568359,
        -0.9998574256896973,
        -0.9992964863777161
      ],
      "type": "VEC3"
    },
    {
      "bufferView": 1,
      "byteOffset": 3704808,
      "componentType": 5126,
      "count": 65532,
      "max": [
        1.0,
        0.9988033771514893
      ],
      "min": [
        0.0005518215475603938,
        0.0
      ],
      "type": "VEC2"
    },
    {
      "bufferView": 0,
      "byteOffset": 7472604,
      "componentType": 5125,
      "count": 323196,
      "type": "SCALAR"
    },
    {
      "bufferView": 2,
      "byteOffset": 12687192,
      "componentType": 5126,
      "count": 65532,
      "max": [
        36.51715087890625,
        69.8092041015625,
        40.67607498168945
      ],
      "min": [
        -61.66099548339844,
        -44.981285095214844,
        -53.21588134765625
      ],
      "type": "VEC3"
    },
    {
      "bufferView": 2,
      "byteOffset": 13473576,
      "componentType": 5126,
      "count": 65532,
      "max": [
        0.9999822378158569,
        0.9997392892837524,
        0.9999876022338867
      ],
      "min": [
        -0.999999463558197,
        -0.9998903274536133,
        -0.999635636806488
      ],
      "type": "VEC3"
    },
    {
      "bufferView": 1,
      "byteOffset": 4229064,
      "componentType": 5126,
      "count": 65532,
      "max": [
        0.9999776482582092,
        0.9997442960739136
      ],
      "min": [
        0.0,
        0.0002142302255379036
      ],
      "type": "VEC2"
    },
    {
      "bufferView": 0,
      "byteOffset": 8765388,
      "componentType": 5125,
      "count": 320694,
      "type": "SCALAR"
    },
    {
      "bufferView": 2,
      "byteOffset": 14259960,
      "componentType": 5126,
      "count": 65532,
      "max": [
        43.99122619628906,
        71.58192443847656,
        39.44672775268555
      ],
      "min": [
        -60.12706756591797,
        -50.825157165527344,
        -51.475746154785156
      ],
      "type": "VEC3"
    },
    {
      "bufferView": 2,
      "byteOffset": 15046344,
      "componentType": 5126,
      "count": 65532,
      "max": [
        0.9999645352363586,
        0.9999788403511047,
        0.9999961256980896
      ],
      "min": [
        -0.9999999403953552,
        -0.999862015247345,
        -0.9999284744262695
      ],
      "type": "VEC3"
    },
    {
      "bufferView": 1,
      "byteOffset": 4753320,
      "componentType": 5126,
      "count": 65532,
      "max": [
        1.0,
        0.9996376633644104
      ],
      "min": [
        0.0,
        0.0
      ],
      "type": "VEC2"
    },
    {
      "bufferView": 0,
      "byteOffset": 10048164,
      "componentType": 5125,
      "count": 309891,
      "type": "SCALAR"
    },
    {
      "bufferView": 2,
      "byteOffset": 15832728,
      "componentType": 5126,
      "count": 65532,
      "max": [
        36.60619354248047,
        70.8467025756836,
        22.256614685058594
      ],
      "min": [
        -61.66099548339844,
        -35.53986358642578,
        -53.23799133300781
      ],
      "type": "VEC3"
    },
    {
      "bufferView": 2,
      "byteOffset": 16619112,
      "componentType": 5126,
      "count": 65532,
      "max": [
        0.9999964833259583,
        0.999991238117218,
        0.9999986886978149
      ],
      "min": [
        -0.999980628490448,
        -0.9999997615814209,
        -0.9996858835220337
      ],
      "type": "VEC3"
    },
    {
      "bufferView": 1,
      "byteOffset": 5277576,
      "componentType": 5126,
      "count": 65532,
      "max": [
        1.0,
        0.9999744296073914
      ],
      "min": [
        0.0,
        0.0
      ],
      "type": "VEC2"
    },
    {
      "bufferView": 0,
      "byteOffset": 11287728,
      "componentType": 5125,
      "count": 310131,
      "type": "SCALAR"
    },
    {
      "bufferView": 2,
      "byteOffset": 17405496,
      "componentType": 5126,
      "count": 65532,
      "max": [
        20.00818634033203,
        59.99714660644531,
        35.67464065551758
      ],
      "min": [
        -43.97914123535156,
        -49.948368072509766,
        -49.32722473144531
      ],
      "type": "VEC3"
    },
    {
      "bufferView": 2,
      "byteOffset": 18191880,
      "componentType": 5126,
      "count": 65532,
      "max": [
        0.9999764561653137,
        0.999882161617279,
        0.9999551773071289
      ],
      "min": [
        -0.9999515414237976,
        -0.9999776482582092,
        -0.9999355673789978
      ],
      "type": "VEC3"
    },
    {
      "bufferView": 1,
      "byteOffset": 5801832,
      "componentType": 5126,
      "count": 65532,
      "max": [
        1.0,
        0.9998118877410889
      ],
      "min": [
        0.0,
        0.0
      ],
      "type": "VEC2"
    },
    {
      "bufferView": 0,
      "byteOffset": 12528252,
      "componentType": 5125,
      "count": 298056,
      "type": "SCALAR"
    },
    {
      "bufferView": 2,
      "byteOffset": 18978264,
      "componentType": 5126,
      "count": 56213,
      "max": [
        43.93775939941406,
        19.722688674926758,
        36.54890060424805
      ],
      "min": [
        4.86298942565918,
        -44.488487243652344,
        -12.827361106872559
      ],
      "type": "VEC3"
    },
    {
      "bufferView": 2,
      "byteOffset": 19652820,
      "componentType": 5126,
      "count": 56213,
      "max": [
        0.9999970197677612,
        0.9999603629112244,
        0.9999698400497437
      ],
      "min": [
        -0.9999983310699463,
        -0.9999205470085144,
        -0.9997758269309998
      ],
      "type": "VEC3"
    },
    {
      "bufferView": 1,
      "byteOffset": 6326088,
      "componentType": 5126,
      "count": 56213,
      "max": [
        1.0,
        1.0
      ],
      "min": [
        0.0,
        0.0
      ],
      "type": "VEC2"
    },
    {
      "bufferView": 0,
      "byteOffset": 13720476,
      "componentType": 5125,
      "count": 260952,
      "type": "SCALAR"
    },
    {
      "bufferView": 2,
      "byteOffset": 20327376,
      "componentType": 5126,
      "count": 65532,
      "max": [
        43.3432731628418,
        67.44882202148438,
        35.67025375366211
      ],
      "min": [
        -40.677364349365234,
        -48.71601104736328,
        -37.90553283691406
      ],
      "type": "VEC3"
    },
    {
      "bufferView": 2,
      "byteOffset": 21113760,
      "componentType": 5126,
      "count": 65532,
      "max": [
        0.9999946355819702,
        1.0,
        0.9999955296516418
      ],
      "min": [
        -0.999988853931427,
        -0.9998259544372559,
        -0.9996344447135925
      ],
      "type": "VEC3"
    },
    {
      "bufferView": 1,
      "byteOffset": 6775792,
      "componentType": 5126,
      "count": 65532,
      "max": [
        0.999476969242096,
        0.9992477297782898
      ],
      "min": [
        0.0004133894690312445,
        0.0
      ],
      "type": "VEC2"
    },
    {
      "bufferView": 0,
      "byteOffset": 14764284,
      "componentType": 5125,
      "count": 308571,
      "type": "SCALAR"
    },
    {
      "bufferView": 2,
      "byteOffset": 21900144,
      "componentType": 5126,
      "count": 65532,
      "max": [
        36.14213562011719,
        70.79913330078125,
        33.71303939819336
      ],
      "min": [
        -61.90337371826172,
        -47.51588821411133,
        -51.790008544921875
      ],
      "type": "VEC3"
    },
    {
      "bufferView": 2,
      "byteOffset": 22686528,
      "componentType": 5126,
      "count": 65532,
      "max": [
        0.9999772310256958,
        0.9999489784240723,
        0.9999576807022095
      ],
      "min": [
        -0.9999573230743408,
        -0.9999911785125732,
        -0.9994378089904785
      ],
      "type": "VEC3"
    },
    {
      "bufferView": 1,
      "byteOffset": 7300048,
      "componentType": 5126,
      "count": 65532,
      "max": [
        0.9993294477462769,
        0.9993911385536194
      ],
      "min": [
        5.3498697525355965e-05,
        0.0
      ],
      "type": "VEC2"
    },
    {
      "bufferView": 0,
      "byteOffset": 15998568,
      "componentType": 5125,
      "count": 297138,
      "type": "SCALAR"
    },
    {
      "bufferView": 2,
      "byteOffset": 23472912,
      "componentType": 5126,
      "count": 65532,
      "max": [
        45.99795150756836,
        61.461944580078125,
        40.23406219482422
      ],
      "min": [
        -58.66318130493164,
        -48.94342803955078,
        -37.40904235839844
      ],
      "type": "VEC3"
    },
    {
      "bufferView": 2,
      "byteOffset": 24259296,
      "componentType": 5126,
      "count": 65532,
      "max": [
        0.99997478723526,
        0.999992847442627,
        0.9999779462814331
      ],
      "min": [
        -0.9999986290931702,
        -0.9999707937240601,
        -0.9998555183410645
      ],
      "type": "VEC3"
    },
    {
      "bufferView": 1,
      "byteOffset": 7824304,
      "componentType": 5126,
      "count": 65532,
      "max": [
        1.0,
        1.0
      ],
      "min": [
        0.000401987781515345,
        0.0
      ],
      "type": "VEC2"
    },
    {
      "bufferView": 0,
      "byteOffset": 17187120,
      "componentType": 5125,
      "count": 256158,
      "type": "SCALAR"
    },
    {
      "bufferView": 2,
      "byteOffset": 25045680,
      "componentType": 5126,
      "count": 65532,
      "max": [
        35.7241325378418,
        70.87286376953125,
        5.2396697998046875
      ],
      "min": [
        -22.548892974853516,
        -13.66418743133545,
        -53.395362854003906
      ],
      "type": "VEC3"
    },
    {
      "bufferView": 2,
      "byteOffset": 25832064,
      "componentType": 5126,
      "count": 65532,
      "max": [
        0.9999900460243225,
        0.9999881982803345,
        0.9999574422836304
      ],
      "min": [
        -0.9999678730964661,
        -0.9998853802680969,
        -0.9977654814720154
      ],
      "type": "VEC3"
    },
    {
      "bufferView": 1,
      "byteOffset": 8348560,
      "componentType": 5126,
      "count": 65532,
      "max": [
        0.999955952167511,
        0.9997357726097107
      ],
      "min": [
        0.0005068713799118996,
        0.0
      ],
      "type": "VEC2"
    },
    {
      "bufferView": 0,
      "byteOffset": 18211752,
      "componentType": 5125,
      "count": 247179,
      "type": "SCALAR"
    },
    {
      "bufferView": 2,
      "byteOffset": 26618448,
      "componentType": 5126,
      "count": 65532,
      "max": [
        35.34959030151367,
        64.22898864746094,
        31.69605255126953
      ],
      "min": [
        -62.324710845947266,
        -51.00350570678711,
        -53.320411682128906
      ],
      "type": "VEC3"
    },
    {
      "bufferView": 2,
      "byteOffset": 27404832,
      "componentType": 5126,
      "count": 65532,
      "max": [
        0.9999083876609802,
        0.9999805092811584,
        0.9999642968177795
      ],
      "min": [
        -0.9999911189079285,
        -0.9998586773872375,
        -0.9999061822891235
      ],
      "type": "VEC3"
    },
    {
      "bufferView": 1,
      "byteOffset": 8872816,
      "componentType": 5126,
      "count": 65532,
      "max": [
        1.0,
        0.999440610408783
      ],
      "min": [
        0.0,
        0.00010944170935545117
      ],
      "type": "VEC2"
    },
    {
      "bufferView": 0,
      "byteOffset": 19200468,
      "componentType": 5125,
      "count": 232992,
      "type": "SCALAR"
    },
    {
      "bufferView": 2,
      "byteOffset": 28191216,
      "componentType": 5126,
      "count": 65532,
      "max": [
        5.802938461303711,
        -1.7607946395874023,
        35.459529876708984
      ],
      "min": [
        -41.1803092956543,
        -48.41720962524414,
        -1.8375244140625
      ],
      "type": "VEC3"
    },
    {
      "bufferView": 2,
      "byteOffset": 28977600,
      "componentType": 5126,
      "count": 65532,
      "max": [
        0.9999783635139465,
        0.9999531507492065,
        0.9999596476554871
      ],
      "min": [
        -0.9999897480010986,
        -0.9999557137489319,
        -0.999938428401947
      ],
      "type": "VEC3"
    },
    {
      "bufferView": 1,
      "byteOffset": 9397072,
      "componentType": 5126,
      "count": 65532,
      "max": [
        1.0,
        1.0
      ],
      "min": [
        0.00026509916642680764,
        0.0
      ],
      "type": "VEC2"
    },
    {
      "bufferView": 0,
      "byteOffset": 20132436,
      "componentType": 5125,
      "count": 244146,
      "type": "SCALAR"
    },
    {
      "bufferView": 2,
      "byteOffset": 29763984,
      "componentType": 5126,
      "count": 65532,
      "max": [
        29.700857162475586,
        8.063962936401367,
        35.63136291503906
      ],
      "min": [
        4.879508972167969,
        -45.591392517089844,
        -7.5922770500183105
      ],
      "type": "VEC3"
    },
    {
      "bufferView": 2,
      "byteOffset": 30550368,
      "componentType": 5126,
      "count": 65532,
      "max": [
        0.9999912977218628,
        0.9999849200248718,
        0.9999955296516418
      ],
      "min": [
        -0.9999999403953552,
        -0.9999577403068542,
        -0.9998622536659241
      ],
      "type": "VEC3"
    },
    {
      "bufferView": 1,
      "byteOffset": 9921328,
      "componentType": 5126,
      "count": 65532,
      "max": [
        1.0,
        1.0
      ],
      "min": [
        0.0,
        9.931871318258345e-06
      ],
      "type": "VEC2"
    },
    {
      "bufferView": 0,
      "byteOffset": 21109020,
      "componentType": 5125,
      "count": 251511,
      "type": "SCALAR"
    },
    {
      "bufferView": 2,
      "byteOffset": 31336752,
      "componentType": 5126,
      "count": 13884,
      "max": [
        46.77277755737305,
        15.146242141723633,
        26.39978790283203
      ],
      "min": [
        20.304393768310547,
        -27.056638717651367,
        -9.781919479370117
      ],
      "type": "VEC3"
    },
    {
      "bufferView": 2,
      "byteOffset": 31503360,
      "componentType": 5126,
      "count": 13884,
      "max": [
        0.9999972581863403,
        0.9997462034225464,
        0.9998786449432373
      ],
      "min": [
        -0.9999687075614929,
        -0.9999927878379822,
        -0.9999727010726929
      ],
      "type": "VEC3"
    },
    {
      "bufferView": 1,
      "byteOffset": 10445584,
      "componentType": 5126,
      "count": 13884,
      "max": [
        0.9997743964195251,
        0.9843105673789978
      ],
      "min": [
        0.004046137444674969,
        0.0
      ],
      "type": "VEC2"
    },
    {
      "bufferView": 0,
      "byteOffset": 22115064,
      "componentType": 5125,
      "count": 57648,
      "type": "SCALAR"
    },
    {
      "bufferView": 2,
      "byteOffset": 31669968,
      "componentType": 5126,
      "count": 65532,
      "max": [
        47.60028076171875,
        67.4550552368164,
        35.61186599731445
      ],
      "min": [
        -54.2843017578125,
        -46.946475982666016,
        -47.76047134399414
      ],
      "type": "VEC3"
    },
    {
      "bufferView": 2,
      "byteOffset": 32456352,
      "componentType": 5126,
      "count": 65532,
      "max": [
        0.9999849796295166,
        0.9999877214431763,
        0.9999979138374329
      ],
      "min": [
        -0.9999671578407288,
        -0.9997662901878357,
        -0.9992355704307556
      ],
      "type": "VEC3"
    },
    {
      "bufferView": 1,
      "byteOffset": 10556656,
      "componentType": 5126,
      "count": 65532,
      "max": [
        1.0,
        0.9970138072967529
      ],
      "min": [
        0.0,
        0.0005323972436599433
      ],
      "type": "VEC2"
    },
    {
      "bufferView": 0,
      "byteOffset": 22345656,
      "componentType": 5125,
      "count": 323220,
      "type": "SCALAR"
    },
    {
      "bufferView": 2,
      "byteOffset": 33242736,
      "componentType": 5126,
      "count": 65532,
      "max": [
        36.507118225097656,
        67.612060546875,
        33.84925079345703
      ],
      "min": [
        -56.73475646972656,
        -46.843116760253906,
        -51.972557067871094
      ],
      "type": "VEC3"
    },
    {
      "bufferView": 2,
      "byteOffset": 34029120,
      "componentType": 5126,
      "count": 65532,
      "max": [
        0.9998982548713684,
        0.9999617338180542,
        0.9999794363975525
      ],
      "min": [
        -0.9999990463256836,
        -0.9999926686286926,
        -0.9994818568229675
      ],
      "type": "VEC3"
    },
    {
      "bufferView": 1,
      "byteOffset": 11080912,
      "componentType": 5126,
      "count": 65532,
      "max": [
        1.0,
        0.9977431893348694
      ],
      "min": [
        0.0,
        0.0006934637203812599
      ],
      "type": "VEC2"
    },
    {
      "bufferView": 0,
      "byteOffset": 23638536,
      "componentType": 5125,
      "count": 324402,
      "type": "SCALAR"
    },
    {
      "bufferView": 2,
      "byteOffset": 34815504,
      "componentType": 5126,
      "count": 65532,
      "max": [
        47.67129898071289,
        71.54773712158203,
        40.340065002441406
      ],
      "min": [
        -60.06149673461914,
        -50.50712966918945,
        -52.86888122558594
      ],
      "type": "VEC3"
    },
    {
      "bufferView": 2,
      "byteOffset": 35601888,
      "componentType": 5126,
      "count": 65532,
      "max": [
        0.9999847412109375,
        0.9999160170555115,
        0.9999918937683105
      ],
      "min": [
        -0.9999940395355225,
        -0.999862015247345,
        -0.9999564290046692
      ],
      "type": "VEC3"
    },
    {
      "bufferView": 1,
      "byteOffset": 11605168,
      "componentType": 5126,
      "count": 65532,
      "max": [
        1.0,
        1.0
      ],
      "min": [
        0.0,
        0.0
      ],
      "type": "VEC2"
    },
    {
      "bufferView": 0,
      "byteOffset": 24936144,
      "componentType": 5125,
      "count": 308220,
      "type": "SCALAR"
    },
    {
      "bufferView": 2,
      "byteOffset": 36388272,
      "componentType": 5126,
      "count": 65534,
      "max": [
        36.4225959777832,
        70.59352111816406,
        22.901050567626953
      ],
      "min": [
        -62.26123046875,
        -36.766258239746094,
        -52.837562561035156
      ],
      "type": "VEC3"
    },
    {
      "bufferView": 2,
      "byteOffset": 37174680,
      "componentType": 5126,
      "count": 65534,
      "max": [
        0.9999926686286926,
        0.999994695186615,
        0.9999607801437378
      ],
      "min": [
        -0.9999866485595703,
        -0.9997349977493286,
        -0.9994818568229675
      ],
      "type": "VEC3"
    },
    {
      "bufferView": 1,
      "byteOffset": 12129424,
      "componentType": 5126,
      "count": 65534,
      "max": [
        1.0,
        1.0
      ],
      "min": [
        0.0,
        0.0005745828384533525
      ],
      "type": "VEC2"
    },
    {
      "bufferView": 0,
      "byteOffset": 26169024,
      "componentType": 5125,
      "count": 303144,
      "type": "SCALAR"
    },
    {
      "bufferView": 2,
      "byteOffset": 37961088,
      "componentType": 5126,
      "count": 65532,
      "max": [
        20.065784454345703,
        8.807608604431152,
        35.928768157958984
      ],
      "min": [
        -18.6560001373291,
        -48.09825134277344,
        -7.731821060180664
      ],
      "type": "VEC3"
    },
    {
      "bufferView": 2,
      "byteOffset": 38747472,
      "componentType": 5126,
      "count": 65532,
      "max": [
        0.9999788999557495,
        0.9999465942382813,
        0.9999961256980896
      ],
      "min": [
        -0.9999982118606567,
        -0.9999315738677979,
        -0.9994052052497864
      ],
      "type": "VEC3"
    },
    {
      "bufferView": 1,
      "byteOffset": 12653696,
      "componentType": 5126,
      "count": 65532,
      "max": [
        1.0,
        1.0
      ],
      "min": [
        0.0,
        0.0
      ],
      "type": "VEC2"
    },
    {
      "bufferView": 0,
      "byteOffset": 27381600,
      "componentType": 5125,
      "count": 299718,
      "type": "SCALAR"
    },
    {
      "bufferView": 2,
      "byteOffset": 39533856,
      "componentType": 5126,
      "count": 49286,
      "max": [
        47.749755859375,
        17.760440826416016,
        35.90666961669922
      ],
      "min": [
        4.883243560791016,
        -44.24802780151367,
        -9.201791763305664
      ],
      "type": "VEC3"
    },
    {
      "bufferView": 2,
      "byteOffset": 40125288,
      "componentType": 5126,
      "count": 49286,
      "max": [
        0.9999939203262329,
        0.9999942779541016,
        0.9999918937683105
      ],
      "min": [
        -0.9999994039535522,
        -0.9998951554298401,
        -0.9997277855873108
      ],
      "type": "VEC3"
    },
    {
      "bufferView": 1,
      "byteOffset": 13177952,
      "componentType": 5126,
      "count": 49286,
      "max": [
        1.0,
        1.0
      ],
      "min": [
        0.0,
        0.0
      ],
      "type": "VEC2"
    },
    {
      "bufferView": 0,
      "byteOffset": 28580472,
      "componentType": 5125,
      "count": 230634,
      "type": "SCALAR"
    }
  ],
  "asset": {
    "extras": {
      "author": "333DDD (https://sketchfab.com/333DDD-oficial)",
      "license": "CC-BY-4.0 (http://creativecommons.org/licenses/by/4.0/)",
      "source": "https://sketchfab.com/3d-models/london-white-city-46ec169a33594d5dba1e513ffa35f301",
      "title": "london White City"
    },
    "generator": "Sketchfab-16.12.0",
    "version": "2.0"
  },
  "bufferViews": [
    {
      "buffer": 0,
      "byteLength": 29503008,
      "name": "floatBufferViews",
      "target": 34963
    },
    {
      "buffer": 0,
      "byteLength": 13572240,
      "byteOffset": 29503008,
      "byteStride": 8,
      "name": "floatBufferViews",
      "target": 34962
    },
    {
      "buffer": 0,
      "byteLength": 40716720,
      "byteOffset": 43075248,
      "byteStride": 12,
      "name": "floatBufferViews",
      "target": 34962
    }
  ],
  "buffers": [
    {
      "byteLength": 83791968,
      "uri": "ltf.bin"
    }
  ],
  "extensionsUsed": [
    "KHR_materials_unlit"
  ],
  "images": [
    {
      "uri": "textures/material0_baseColor.jpeg"
    },
    {
      "uri": "textures/material3_baseColor.jpeg"
    },
    {
      "uri": "textures/material2_baseColor.jpeg"
    },
    {
      "uri": "textures/material1_baseColor.jpeg"
    }
  ],
  "materials": [
    {
      "doubleSided": true,
      "extensions": {
        "KHR_materials_unlit": {}
      },
      "name": "material0",
      "pbrMetallicRoughness": {
        "baseColorTexture": {
          "index": 0
        },
        "metallicFactor": 0.0
      }
    },
    {
      "doubleSided": true,
      "extensions": {
        "KHR_materials_unlit": {}
      },
      "name": "material3",
      "pbrMetallicRoughness": {
        "baseColorTexture": {
          "index": 1
        },
        "metallicFactor": 0.0
      }
    },
    {
      "doubleSided": true,
      "extensions": {
        "KHR_materials_unlit": {}
      },
      "name": "material2",
      "pbrMetallicRoughness": {
        "baseColorTexture": {
          "index": 2
        },
        "metallicFactor": 0.0
      }
    },
    {
      "doubleSided": true,
      "extensions": {
        "KHR_materials_unlit": {}
      },
      "name": "material1",
      "pbrMetallicRoughness": {
        "baseColorTexture": {
          "index": 3
        },
        "metallicFactor": 0.0
      }
    }
  ],
  "meshes": [
    {
      "name": "Model_material0_0",
      "primitives": [
        {
          "attributes": {
            "NORMAL": 1,
            "POSITION": 0,
            "TEXCOORD_0": 2
          },
          "indices": 3,
          "material": 0,
          "mode": 4
        }
      ]
    },
    {
      "name": "Model_material0_0",
      "primitives": [
        {
          "attributes": {
            "NORMAL": 5,
            "POSITION": 4,
            "TEXCOORD_0": 6
          },
          "indices": 7,
          "material": 0,
          "mode": 4
        }
      ]
    },
    {
      "name": "Model_material0_0",
      "primitives": [
        {
          "attributes": {
            "NORMAL": 9,
            "POSITION": 8,
            "TEXCOORD_0": 10
          },
          "indices": 11,
          "material": 0,
          "mode": 4
        }
      ]
    },
    {
      "name": "Model_material0_0",
      "primitives": [
        {
          "attributes": {
            "NORMAL": 13,
            "POSITION": 12,
            "TEXCOORD_0": 14
          },
          "indices": 15,
          "material": 0,
          "mode": 4
        }
      ]
    },
    {
      "name": "Model_material0_0",
      "primitives": [
        {
          "attributes": {
            "NORMAL": 17,
            "POSITION": 16,
            "TEXCOORD_0": 18
          },
          "indices": 19,
          "material": 0,
          "mode": 4
        }
      ]
    },
    {
      "name": "Model_material0_0",
      "primitives": [
        {
          "attributes": {
            "NORMAL": 21,
            "POSITION": 20,
            "TEXCOORD_0": 22
          },
          "indices": 23,
          "material": 0,
          "mode": 4
        }
      ]
    },
    {
      "name": "Model_material0_0",
      "primitives": [
        {
          "attributes": {
            "NORMAL": 25,
            "POSITION": 24,
            "TEXCOORD_0": 26
          },
          "indices": 27,
          "material": 0,
          "mode": 4
        }
      ]
    },
    {
      "name": "Model_material0_0",
      "primitives": [
        {
          "attributes": {
            "NORMAL": 29,
            "POSITION": 28,
            "TEXCOORD_0": 30
          },
          "indices": 31,
          "material": 0,
          "mode": 4
        }
      ]
    },
    {
      "name": "Model_material3_0",
      "primitives": [
        {
          "attributes": {
            "NORMAL": 33,
            "POSITION": 32,
            "TEXCOORD_0": 34
          },
          "indices": 35,
          "material": 1,
          "mode": 4
        }
      ]
    },
    {
      "name": "Model_material3_0",
      "primitives": [
        {
          "attributes": {
            "NORMAL": 37,
            "POSITION": 36,
            "TEXCOORD_0": 38
          },
          "indices": 39,
          "material": 1,
          "mode": 4
        }
      ]
    },
    {
      "name": "Model_material3_0",
      "primitives": [
        {
          "attributes": {
            "NORMAL": 41,
            "POSITION": 40,
            "TEXCOORD_0": 42
          },
          "indices": 43,
          "material": 1,
          "mode": 4
        }
      ]
    },
    {
      "name": "Model_material3_0",
      "primitives": [
        {
          "attributes": {
            "NORMAL": 45,
            "POSITION": 44,
            "TEXCOORD_0": 46
          },
          "indices": 47,
          "material": 1,
          "mode": 4
        }
      ]
    },
    {
      "name": "Model_material3_0",
      "primitives": [
        {
          "attributes": {
            "NORMAL": 49,
            "POSITION": 48,
            "TEXCOORD_0": 50
          },
          "indices": 51,
          "material": 1,
          "mode": 4
        }
      ]
    },
    {
      "name": "Model_material3_0",
      "primitives": [
        {
          "attributes": {
            "NORMAL": 53,
            "POSITION": 52,
            "TEXCOORD_0": 54
          },
          "indices": 55,
          "material": 1,
          "mode": 4
        }
      ]
    },
    {
      "name": "Model_material2_0",
      "primitives": [
        {
          "attributes": {
            "NORMAL": 57,
            "POSITION": 56,
            "TEXCOORD_0": 58
          },
          "indices": 59,
          "material": 2,
          "mode": 4
        }
      ]
    },
    {
      "name": "Model_material2_0",
      "primitives": [
        {
          "attributes": {
            "NORMAL": 61,
            "POSITION": 60,
            "TEXCOORD_0": 62
          },
          "indices": 63,
          "material": 2,
          "mode": 4
        }
      ]
    },
    {
      "name": "Model_material2_0",
      "primitives": [
        {
          "attributes": {
            "NORMAL": 65,
            "POSITION": 64,
            "TEXCOORD_0": 66
          },
          "indices": 67,
          "material": 2,
          "mode": 4
        }
      ]
    },
    {
      "name": "Model_material2_0",
      "primitives": [
        {
          "attributes": {
            "NORMAL": 69,
            "POSITION": 68,
            "TEXCOORD_0": 70
          },
          "indices": 71,
          "material": 2,
          "mode": 4
        }
      ]
    },
    {
      "name": "Model_material2_0",
      "primitives": [
        {
          "attributes": {
            "NORMAL": 73,
            "POSITION": 72,
            "TEXCOORD_0": 74
          },
          "indices": 75,
          "material": 2,
          "mode": 4
        }
      ]
    },
    {
      "name": "Model_material2_0",
      "primitives": [
        {
          "attributes": {
            "NORMAL": 77,
            "POSITION": 76,
            "TEXCOORD_0": 78
          },
          "indices": 79,
          "material": 2,
          "mode": 4
        }
      ]
    },
    {
      "name": "Model_material2_0",
      "primitives": [
        {
          "attributes": {
            "NORMAL": 81,
            "POSITION": 80,
            "TEXCOORD_0": 82
          },
          "indices": 83,
          "material": 2,
          "mode": 4
        }
      ]
    },
    {
      "name": "Model_material2_0",
      "primitives": [
        {
          "attributes": {
            "NORMAL": 85,
            "POSITION": 84,
            "TEXCOORD_0": 86
          },
          "indices": 87,
          "material": 2,
          "mode": 4
        }
      ]
    },
    {
      "name": "Model_material1_0",
      "primitives": [
        {
          "attributes": {
            "NORMAL": 89,
            "POSITION": 88,
            "TEXCOORD_0": 90
          },
          "indices": 91,
          "material": 3,
          "mode": 4
        }
      ]
    },
    {
      "name": "Model_material1_0",
      "primitives": [
        {
          "attributes": {
            "NORMAL": 93,
            "POSITION": 92,
            "TEXCOORD_0": 94
          },
          "indices": 95,
          "material": 3,
          "mode": 4
        }
      ]
    },
    {
      "name": "Model_material1_0",
      "primitives": [
        {
          "attributes": {
            "NORMAL": 97,
            "POSITION": 96,
            "TEXCOORD_0": 98
          },
          "indices": 99,
          "material": 3,
          "mode": 4
        }
      ]
    },
    {
      "name": "Model_material1_0",
      "primitives": [
        {
          "attributes": {
            "NORMAL": 101,
            "POSITION": 100,
            "TEXCOORD_0": 102
          },
          "indices": 103,
          "material": 3,
          "mode": 4
        }
      ]
    },
    {
      "name": "Model_material1_0",
      "primitives": [
        {
          "attributes": {
            "NORMAL": 105,
            "POSITION": 104,
            "TEXCOORD_0": 106
          },
          "indices": 107,
          "material": 3,
          "mode": 4
        }
      ]
    },
    {
      "name": "Model_material1_0",
      "primitives": [
        {
          "attributes": {
            "NORMAL": 109,
            "POSITION": 108,
            "TEXCOORD_0": 110
          },
          "indices": 111,
          "material": 3,
          "mode": 4
        }
      ]
    }
  ],
  "nodes": [
    {
      "children": [
        1
      ],
      "matrix": [
        0.5529507398605347,
        -0.009475897066295333,
        0.8331600427627563,
        0.0,
        0.8305339813232422,
        -0.07386656105518329,
        -0.5520480275154114,
        0.0,
        0.06677381694316864,
        0.9972231388092041,
        -0.032974515110254066,
        0.0,
        0.0,
        0.0,
        0.0,
        1.0
      ],
      "name": "Sketchfab_model"
    },
    {
      "children": [
        2
      ],
      "matrix": [
        0.009999999776482582,
        0.0,
        0.0,
        0.0,
        0.0,
        0.0,
        0.009999999776482582,
        0.0,
        0.0,
        -0.009999999776482582,
        0.0,
        0.0,
        0.0,
        0.0,
        0.0,
        1.0
      ],
      "name": "d7e710f1b700418687b4db9624bca47f.fbx"
    },
    {
      "children": [
        3
      ],
      "name": "RootNode"
    },
    {
      "children": [
        4,
        5,
        6,
        7,
        8,
        9,
        10,
        11,
        12,
        13,
        14,
        15,
        16,
        17,
        18,
        19,
        20,
        21,
        22,
        23,
        24,
        25,
        26,
        27,
        28,
        29,
        30,
        31
      ],
      "matrix": [
        76.10567936752231,
        -14.055889193603123,
        63.32737181587588,
        0.0,
        55.85150633092611,
        63.85138671819293,
        -52.94912326687098,
        0.0,
        -32.9929349812471,
        75.66658106035203,
        56.44495749029783,
        0.0,
        0.0,
        0.0,
        0.0,
        1.0
      ],
      "name": "Model"
    },
    {
      "mesh": 0,
      "name": "Model_material0_0"
    },
    {
      "mesh": 1,
      "name": "Model_material0_0"
    },
    {
      "mesh": 2,
      "name": "Model_material0_0"
    },
    {
      "mesh": 3,
      "name": "Model_material0_0"
    },
    {
      "mesh": 4,
      "name": "Model_material0_0"
    },
    {
      "mesh": 5,
      "name": "Model_material0_0"
    },
    {
      "mesh": 6,
      "name": "Model_material0_0"
    },
    {
      "mesh": 7,
      "name": "Model_material0_0"
    },
    {
      "mesh": 8,
      "name": "Model_material3_0"
    },
    {
      "mesh": 9,
      "name": "Model_material3_0"
    },
    {
      "mesh": 10,
      "name": "Model_material3_0"
    },
    {
      "mesh": 11,
      "name": "Model_material3_0"
    },
    {
      "mesh": 12,
      "name": "Model_material3_0"
    },
    {
      "mesh": 13,
      "name": "Model_material3_0"
    },
    {
      "mesh": 14,
      "name": "Model_material2_0"
    },
    {
      "mesh": 15,
      "name": "Model_material2_0"
    },
    {
      "mesh": 16,
      "name": "Model_material2_0"
    },
    {
      "mesh": 17,
      "name": "Model_material2_0"
    },
    {
      "mesh": 18,
      "name": "Model_material2_0"
    },
    {
      "mesh": 19,
      "name": "Model_material2_0"
    },
    {
      "mesh": 20,
      "name": "Model_material2_0"
    },
    {
      "mesh": 21,
      "name": "Model_material2_0"
    },
    {
      "mesh": 22,
      "name": "Model_material1_0"
    },
    {
      "mesh": 23,
      "name": "Model_material1_0"
    },
    {
      "mesh": 24,
      "name": "Model_material1_0"
    },
    {
      "mesh": 25,
      "name": "Model_material1_0"
    },
    {
      "mesh": 26,
      "name": "Model_material1_0"
    },
    {
      "mesh": 27,
      "name": "Model_material1_0"
    }
  ],
  "samplers": [
    {
      "magFilter": 9729,
      "minFilter": 9987,
      "wrapS": 10497,
      "wrapT": 10497
    }
  ],
  "scene": 0,
  "scenes": [
    {
      "name": "Sketchfab_Scene",
      "nodes": [
        0
      ]
    }
  ],
  "textures": [
    {
      "sampler": 0,
      "source": 0
    },
    {
      "sampler": 0,
      "source": 1
    },
    {
      "sampler": 0,
      "source": 2
    },
    {
      "sampler": 0,
      "source": 3
    }
  ]
}
