{
  "accessors": [
    {
      "bufferView": 2,
      "componentType": 5126,
      "count": 4604,
      "max": [
        1.3543188571929932,
        1.0,
        6.1952667236328125
      ],
      "min": [
        -1.3543188571929932,
        -1.0,
        0.004555940628051758
      ],
      "type": "VEC3"
    },
    {
      "bufferView": 2,
      "byteOffset": 55248,
      "componentType": 5126,
      "count": 4604,
      "max": [
        1.0,
        1.0,
        1.0
      ],
      "min": [
        -1.0,
        -1.0,
        -1.0
      ],
      "type": "VEC3"
    },
    {
      "bufferView": 3,
      "componentType": 5126,
      "count": 4604,
      "max": [
        1.0,
        1.0,
        1.0,
        1.0
      ],
      "min": [
        -1.0,
        -1.0,
        -1.0,
        1.0
      ],
      "type": "VEC4"
    },
    {
      "bufferView": 1,
      "componentType": 5126,
      "count": 4604,
      "max": [
        0.998363196849823,
        1.0001800060272217
      ],
      "min": [
        0.000957190990447998,
        0.0009570121765136719
      ],
      "type": "VEC2"
    },
    {
      "bufferView": 1,
      "byteOffset": 36832,
      "componentType": 5126,
      "count": 4604,
      "max": [
        0.998363196849823,
        1.0001800060272217
      ],
      "min": [
        0.000957190990447998,
        0.0009570121765136719
      ],
      "type": "VEC2"
    },
    {
      "bufferView": 1,
      "byteOffset": 73664,
      "componentType": 5126,
      "count": 4604,
      "max": [
        0.998363196849823,
        1.0001800060272217
      ],
      "min": [
        0.000957190990447998,
        0.0009570121765136719
      ],
      "type": "VEC2"
    },
    {
      "bufferView": 0,
      "componentType": 5125,
      "count": 12438,
      "type": "SCALAR"
    },
    {
      "bufferView": 2,
      "byteOffset": 110496,
      "componentType": 5126,
      "count": 4604,
      "max": [
        1.3543188571929932,
        1.0,
        6.1952667236328125
      ],
      "min": [
        -1.3543188571929932,
        -1.0,
        0.004555940628051758
      ],
      "type": "VEC3"
    },
    {
      "bufferView": 2,
      "byteOffset": 165744,
      "componentType": 5126,
      "count": 4604,
      "max": [
        1.0,
        1.0,
        1.0
      ],
      "min": [
        -1.0,
        -1.0,
        -1.0
      ],
      "type": "VEC3"
    },
    {
      "bufferView": 3,
      "byteOffset": 73664,
      "componentType": 5126,
      "count": 4604,
      "max": [
        1.0,
        1.0,
        1.0,
        1.0
      ],
      "min": [
        -1.0,
        -1.0,
        -1.0,
        1.0
      ],
      "type": "VEC4"
    },
    {
      "bufferView": 1,
      "byteOffset": 110496,
      "componentType": 5126,
      "count": 4604,
      "max": [
        0.998363196849823,
        1.0001800060272217
      ],
      "min": [
        0.000957190990447998,
        0.0009570121765136719
      ],
      "type": "VEC2"
    },
    {
      "bufferView": 1,
      "byteOffset": 147328,
      "componentType": 5126,
      "count": 4604,
      "max": [
        0.998363196849823,
        1.0001800060272217
      ],
      "min": [
        0.000957190990447998,
        0.0009570121765136719
      ],
      "type": "VEC2"
    },
    {
      "bufferView": 1,
      "byteOffset": 184160,
      "componentType": 5126,
      "count": 4604,
      "max": [
        0.998363196849823,
        1.0001800060272217
      ],
      "min": [
        0.000957190990447998,
        0.0009570121765136719
      ],
      "type": "VEC2"
    },
    {
      "bufferView": 0,
      "byteOffset": 49752,
      "componentType": 5125,
      "count": 12438,
      "type": "SCALAR"
    },
    {
      "bufferView": 2,
      "byteOffset": 220992,
      "componentType": 5126,
      "count": 4604,
      "max": [
        1.3543188571929932,
        1.0,
        6.1952667236328125
      ],
      "min": [
        -1.3543188571929932,
        -1.0,
        0.004555940628051758
      ],
      "type": "VEC3"
    },
    {
      "bufferView": 2,
      "byteOffset": 276240,
      "componentType": 5126,
      "count": 4604,
      "max": [
        1.0,
        1.0,
        1.0
      ],
      "min": [
        -1.0,
        -1.0,
        -1.0
      ],
      "type": "VEC3"
    },
    {
      "bufferView": 3,
      "byteOffset": 147328,
      "componentType": 5126,
      "count": 4604,
      "max": [
        1.0,
        1.0,
        1.0,
        1.0
      ],
      "min": [
        -1.0,
        -1.0,
        -1.0,
        1.0
      ],
      "type": "VEC4"
    },
    {
      "bufferView": 1,
      "byteOffset": 220992,
      "componentType": 5126,
      "count": 4604,
      "max": [
        0.998363196849823,
        1.0001800060272217
      ],
      "min": [
        0.000957190990447998,
        0.0009570121765136719
      ],
      "type": "VEC2"
    },
    {
      "bufferView": 1,
      "byteOffset": 257824,
      "componentType": 5126,
      "count": 4604,
      "max": [
        0.998363196849823,
        1.0001800060272217
      ],
      "min": [
        0.000957190990447998,
        0.0009570121765136719
      ],
      "type": "VEC2"
    },
    {
      "bufferView": 1,
      "byteOffset": 294656,
      "componentType": 5126,
      "count": 4604,
      "max": [
        0.998363196849823,
        1.0001800060272217
      ],
      "min": [
        0.000957190990447998,
        0.0009570121765136719
      ],
      "type": "VEC2"
    },
    {
      "bufferView": 0,
      "byteOffset": 99504,
      "componentType": 5125,
      "count": 12438,
      "type": "SCALAR"
    },
    {
      "bufferView": 2,
      "byteOffset": 331488,
      "componentType": 5126,
      "count": 4604,
      "max": [
        1.3543188571929932,
        1.0,
        6.1952667236328125
      ],
      "min": [
        -1.3543188571929932,
        -1.0,
        0.004555940628051758
      ],
      "type": "VEC3"
    },
    {
      "bufferView": 2,
      "byteOffset": 386736,
      "componentType": 5126,
      "count": 4604,
      "max": [
        1.0,
        1.0,
        1.0
      ],
      "min": [
        -1.0,
        -1.0,
        -1.0
      ],
      "type": "VEC3"
    },
    {
      "bufferView": 3,
      "byteOffset": 220992,
      "componentType": 5126,
      "count": 4604,
      "max": [
        1.0,
        1.0,
        1.0,
        1.0
      ],
      "min": [
        -1.0,
        -1.0,
        -1.0,
        1.0
      ],
      "type": "VEC4"
    },
    {
      "bufferView": 1,
      "byteOffset": 331488,
      "componentType": 5126,
      "count": 4604,
      "max": [
        0.998363196849823,
        1.0001800060272217
      ],
      "min": [
        0.000957190990447998,
        0.0009570121765136719
      ],
      "type": "VEC2"
    },
    {
      "bufferView": 1,
      "byteOffset": 368320,
      "componentType": 5126,
      "count": 4604,
      "max": [
        0.998363196849823,
        1.0001800060272217
      ],
      "min": [
        0.000957190990447998,
        0.0009570121765136719
      ],
      "type": "VEC2"
    },
    {
      "bufferView": 1,
      "byteOffset": 405152,
      "componentType": 5126,
      "count": 4604,
      "max": [
        0.998363196849823,
        1.0001800060272217
      ],
      "min": [
        0.000957190990447998,
        0.0009570121765136719
      ],
      "type": "VEC2"
    },
    {
      "bufferView": 0,
      "byteOffset": 149256,
      "componentType": 5125,
      "count": 12438,
      "type": "SCALAR"
    }
  ],
  "asset": {
    "extras": {
      "author": "Stepanaan (https://sketchfab.com/Stepanaan)",
      "license": "CC-BY-4.0 (http://creativecommons.org/licenses/by/4.0/)",
      "source": "https://sketchfab.com/3d-models/fnaf-arcades-18aa6aa8b9e24b08aae030a2fd81729f",
      "title": "FNAF Arcades"
    },
    "generator": "Sketchfab-15.8.0",
    "version": "2.0"
  },
  "bufferViews": [
    {
      "buffer": 0,
      "byteLength": 199008,
      "name": "floatBufferViews",
      "target": 34963
    },
    {
      "buffer": 0,
      "byteLength": 441984,
      "byteOffset": 199008,
      "byteStride": 8,
      "name": "floatBufferViews",
      "target": 34962
    },
    {
      "buffer": 0,
      "byteLength": 441984,
      "byteOffset": 640992,
      "byteStride": 12,
      "name": "floatBufferViews",
      "target": 34962
    },
    {
      "buffer": 0,
      "byteLength": 294656,
      "byteOffset": 1082976,
      "byteStride": 16,
      "name": "floatBufferViews",
      "target": 34962
    }
  ],
  "buffers": [
    {
      "byteLength": 1377632,
      "uri": "scene.bin"
    }
  ],
  "extensionsUsed": [
    "KHR_materials_emissive_strength"
  ],
  "images": [
    {
      "uri": "textures/Arcade_Freddy_baseColor.jpeg"
    },
    {
      "uri": "textures/Arcade_Freddy_metallicRoughness.png"
    },
    {
      "uri": "textures/Arcade_Freddy_normal.png"
    },
    {
      "uri": "textures/Arcade_Chica_baseColor.jpeg"
    },
    {
      "uri": "textures/Arcade_Bonnie_baseColor.jpeg"
    },
    {
      "uri": "textures/Arcade_Foxy_baseColor.jpeg"
    }
  ],
  "materials": [
    {
      "doubleSided": true,
      "extensions": {
        "KHR_materials_emissive_strength": {
          "emissiveStrength": 5.0
        }
      },
      "name": "Arcade_Freddy",
      "normalTexture": {
        "index": 2
      },
      "pbrMetallicRoughness": {
        "baseColorTexture": {
          "index": 0
        },
        "metallicRoughnessTexture": {
          "index": 1
        }
      }
    },
    {
      "doubleSided": true,
      "extensions": {
        "KHR_materials_emissive_strength": {
          "emissiveStrength": 5.0
        }
      },
      "name": "Arcade_Chica",
      "normalTexture": {
        "index": 2
      },
      "pbrMetallicRoughness": {
        "baseColorTexture": {
          "index": 3
        },
        "metallicRoughnessTexture": {
          "index": 1
        }
      }
    },
    {
      "doubleSided": true,
      "name": "Arcade_Bonnie",
      "normalTexture": {
        "index": 2
      },
      "pbrMetallicRoughness": {
        "baseColorTexture": {
          "index": 4
        },
        "metallicRoughnessTexture": {
          "index": 1
        }
      }
    },
    {
      "doubleSided": true,
      "extensions": {
        "KHR_materials_emissive_strength": {
          "emissiveStrength": 5.0
        }
      },
      "name": "Arcade_Foxy",
      "normalTexture": {
        "index": 2
      },
      "pbrMetallicRoughness": {
        "baseColorTexture": {
          "index": 5
        },
        "metallicRoughnessTexture": {
          "index": 1
        }
      }
    }
  ],
  "meshes": [
    {
      "name": "Arcade_Freddy_Arcade_Freddy_0",
      "primitives": [
        {
          "attributes": {
            "NORMAL": 1,
            "POSITION": 0,
            "TANGENT": 2,
            "TEXCOORD_0": 3,
            "TEXCOORD_1": 4,
            "TEXCOORD_2": 5
          },
          "indices": 6,
          "material": 0,
          "mode": 4
        }
      ]
    },
    {
      "name": "Arcade_Chica_Arcade_Chica_0",
      "primitives": [
        {
          "attributes": {
            "NORMAL": 8,
            "POSITION": 7,
            "TANGENT": 9,
            "TEXCOORD_0": 10,
            "TEXCOORD_1": 11,
            "TEXCOORD_2": 12
          },
          "indices": 13,
          "material": 1,
          "mode": 4
        }
      ]
    },
    {
      "name": "Arcade_Bonnie_Arcade_Bonnie_0",
      "primitives": [
        {
          "attributes": {
            "NORMAL": 15,
            "POSITION": 14,
            "TANGENT": 16,
            "TEXCOORD_0": 17,
            "TEXCOORD_1": 18,
            "TEXCOORD_2": 19
          },
          "indices": 20,
          "material": 2,
          "mode": 4
        }
      ]
    },
    {
      "name": "Arcade_Foxy_Arcade_Foxy_0",
      "primitives": [
        {
          "attributes": {
            "NORMAL": 22,
            "POSITION": 21,
            "TANGENT": 23,
            "TEXCOORD_0": 24,
            "TEXCOORD_1": 25,
            "TEXCOORD_2": 26
          },
          "indices": 27,
          "material": 3,
          "mode": 4
        }
      ]
    }
  ],
  "nodes": [
    {
      "children": [
        1
      ],
      "matrix": [
        1.0,
        0.0,
        0.0,
        0.0,
        0.0,
        2.220446049250313e-16,
        -1.0,
        0.0,
        0.0,
        1.0,
        2.220446049250313e-16,
        0.0,
        0.0,
        0.0,
        0.0,
        1.0
      ],
      "name": "Sketchfab_model"
    },
    {
      "children": [
        2
      ],
      "matrix": [
        0.009999999776482582,
        0.0,
        0.0,
        0.0,
        0.0,
        0.0,
        0.009999999776482582,
        0.0,
        0.0,
        -0.009999999776482582,
        0.0,
        0.0,
        0.0,
        0.0,
        0.0,
        1.0
      ],
      "name": "1235977ab11944c6b7f904f0ff19281d.fbx"
    },
    {
      "children": [
        3,
        5,
        7,
        9
      ],
      "name": "RootNode"
    },
    {
      "children": [
        4
      ],
      "matrix": [
        100.0,
        0.0,
        0.0,
        0.0,
        0.0,
        -1.629206793918314e-05,
        -99.99999999999868,
        0.0,
        0.0,
        99.99999999999868,
        -1.629206793918314e-05,
        0.0,
        0.0,
        0.0,
        0.0,
        1.0
      ],
      "name": "Arcade_Freddy"
    },
    {
      "mesh": 0,
      "name": "Arcade_Freddy_Arcade_Freddy_0"
    },
    {
      "children": [
        6
      ],
      "matrix": [
        100.0,
        0.0,
        0.0,
        0.0,
        0.0,
        -1.629206793918314e-05,
        -99.99999999999868,
        0.0,
        0.0,
        99.99999999999868,
        -1.629206793918314e-05,
        0.0,
        500.0,
        0.0,
        0.0,
        1.0
      ],
      "name": "Arcade_Chica"
    },
    {
      "mesh": 1,
      "name": "Arcade_Chica_Arcade_Chica_0"
    },
    {
      "children": [
        8
      ],
      "matrix": [
        100.0,
        0.0,
        0.0,
        0.0,
        0.0,
        -1.629206793918314e-05,
        -99.99999999999868,
        0.0,
        0.0,
        99.99999999999868,
        -1.629206793918314e-05,
        0.0,
        1000.0,
        0.0,
        0.0,
        1.0
      ],
      "name": "Arcade_Bonnie"
    },
    {
      "mesh": 2,
      "name": "Arcade_Bonnie_Arcade_Bonnie_0"
    },
    {
      "children": [
        10
      ],
      "matrix": [
        100.0,
        0.0,
        0.0,
        0.0,
        0.0,
        -1.629206793918314e-05,
        -99.99999999999868,
        0.0,
        0.0,
        99.99999999999868,
        -1.629206793918314e-05,
        0.0,
        1500.0,
        0.0,
        0.0,
        1.0
      ],
      "name": "Arcade_Foxy"
    },
    {
      "mesh": 3,
      "name": "Arcade_Foxy_Arcade_Foxy_0"
    }
  ],
  "samplers": [
    {
      "magFilter": 9729,
      "minFilter": 9987,
      "wrapS": 10497,
      "wrapT": 10497
    }
  ],
  "scene": 0,
  "scenes": [
    {
      "name": "Sketchfab_Scene",
      "nodes": [
        0
      ]
    }
  ],
  "textures": [
    {
      "sampler": 0,
      "source": 0
    },
    {
      "sampler": 0,
      "source": 1
    },
    {
      "sampler": 0,
      "source": 2
    },
    {
      "sampler": 0,
      "source": 3
    },
    {
      "sampler": 0,
      "source": 4
    },
    {
      "sampler": 0,
      "source": 5
    }
  ]
}
